<svg width="282" height="90" viewBox="0 0 282 90" fill="none" xmlns="http://www.w3.org/2000/svg">
<mask id="path-1-outside-1_695_15" maskUnits="userSpaceOnUse" x="4" y="12" width="160" height="60" fill="black">
<rect fill="white" x="4" y="12" width="160" height="60"/>
<path d="M28.728 30.688C31.8 30.688 34.536 31.312 36.936 32.56C39.384 33.76 41.304 35.632 42.696 38.176C44.088 40.672 44.784 43.888 44.784 47.824V70H33.552V49.552C33.552 46.432 32.856 44.128 31.464 42.64C30.12 41.152 28.2 40.408 25.704 40.408C23.928 40.408 22.32 40.792 20.88 41.56C19.488 42.28 18.384 43.408 17.568 44.944C16.8 46.48 16.416 48.448 16.416 50.848V70H5.184V31.264H15.912V41.992L13.896 38.752C15.288 36.16 17.28 34.168 19.872 32.776C22.464 31.384 25.416 30.688 28.728 30.688ZM54.9653 70V31.264H66.1973V70H54.9653ZM60.5813 25.864C58.5173 25.864 56.8373 25.264 55.5413 24.064C54.2453 22.864 53.5973 21.376 53.5973 19.6C53.5973 17.824 54.2453 16.336 55.5413 15.136C56.8373 13.936 58.5173 13.336 60.5813 13.336C62.6453 13.336 64.3253 13.912 65.6213 15.064C66.9173 16.168 67.5653 17.608 67.5653 19.384C67.5653 21.256 66.9173 22.816 65.6213 24.064C64.3733 25.264 62.6933 25.864 60.5813 25.864ZM95.3415 70.576C91.1655 70.576 87.4455 69.736 84.1815 68.056C80.9175 66.328 78.3495 63.952 76.4775 60.928C74.6535 57.904 73.7415 54.472 73.7415 50.632C73.7415 46.744 74.6535 43.312 76.4775 40.336C78.3495 37.312 80.9175 34.96 84.1815 33.28C87.4455 31.552 91.1655 30.688 95.3415 30.688C99.4215 30.688 102.974 31.552 105.998 33.28C109.022 34.96 111.254 37.384 112.694 40.552L103.982 45.232C102.974 43.408 101.702 42.064 100.166 41.2C98.6775 40.336 97.0455 39.904 95.2695 39.904C93.3495 39.904 91.6215 40.336 90.0855 41.2C88.5495 42.064 87.3255 43.288 86.4135 44.872C85.5495 46.456 85.1175 48.376 85.1175 50.632C85.1175 52.888 85.5495 54.808 86.4135 56.392C87.3255 57.976 88.5495 59.2 90.0855 60.064C91.6215 60.928 93.3495 61.36 95.2695 61.36C97.0455 61.36 98.6775 60.952 100.166 60.136C101.702 59.272 102.974 57.904 103.982 56.032L112.694 60.784C111.254 63.904 109.022 66.328 105.998 68.056C102.974 69.736 99.4215 70.576 95.3415 70.576ZM128.238 62.08L128.526 48.4L146.598 31.264H159.99L142.638 48.904L136.806 53.656L128.238 62.08ZM118.95 70V16.576H130.182V70H118.95ZM147.822 70L134.718 53.728L141.774 45.016L161.43 70H147.822Z"/>
</mask>
<path d="M28.728 30.688C31.8 30.688 34.536 31.312 36.936 32.56C39.384 33.76 41.304 35.632 42.696 38.176C44.088 40.672 44.784 43.888 44.784 47.824V70H33.552V49.552C33.552 46.432 32.856 44.128 31.464 42.64C30.12 41.152 28.2 40.408 25.704 40.408C23.928 40.408 22.32 40.792 20.88 41.56C19.488 42.28 18.384 43.408 17.568 44.944C16.8 46.48 16.416 48.448 16.416 50.848V70H5.184V31.264H15.912V41.992L13.896 38.752C15.288 36.16 17.28 34.168 19.872 32.776C22.464 31.384 25.416 30.688 28.728 30.688ZM54.9653 70V31.264H66.1973V70H54.9653ZM60.5813 25.864C58.5173 25.864 56.8373 25.264 55.5413 24.064C54.2453 22.864 53.5973 21.376 53.5973 19.6C53.5973 17.824 54.2453 16.336 55.5413 15.136C56.8373 13.936 58.5173 13.336 60.5813 13.336C62.6453 13.336 64.3253 13.912 65.6213 15.064C66.9173 16.168 67.5653 17.608 67.5653 19.384C67.5653 21.256 66.9173 22.816 65.6213 24.064C64.3733 25.264 62.6933 25.864 60.5813 25.864ZM95.3415 70.576C91.1655 70.576 87.4455 69.736 84.1815 68.056C80.9175 66.328 78.3495 63.952 76.4775 60.928C74.6535 57.904 73.7415 54.472 73.7415 50.632C73.7415 46.744 74.6535 43.312 76.4775 40.336C78.3495 37.312 80.9175 34.96 84.1815 33.28C87.4455 31.552 91.1655 30.688 95.3415 30.688C99.4215 30.688 102.974 31.552 105.998 33.28C109.022 34.96 111.254 37.384 112.694 40.552L103.982 45.232C102.974 43.408 101.702 42.064 100.166 41.2C98.6775 40.336 97.0455 39.904 95.2695 39.904C93.3495 39.904 91.6215 40.336 90.0855 41.2C88.5495 42.064 87.3255 43.288 86.4135 44.872C85.5495 46.456 85.1175 48.376 85.1175 50.632C85.1175 52.888 85.5495 54.808 86.4135 56.392C87.3255 57.976 88.5495 59.2 90.0855 60.064C91.6215 60.928 93.3495 61.36 95.2695 61.36C97.0455 61.36 98.6775 60.952 100.166 60.136C101.702 59.272 102.974 57.904 103.982 56.032L112.694 60.784C111.254 63.904 109.022 66.328 105.998 68.056C102.974 69.736 99.4215 70.576 95.3415 70.576ZM128.238 62.08L128.526 48.4L146.598 31.264H159.99L142.638 48.904L136.806 53.656L128.238 62.08ZM118.95 70V16.576H130.182V70H118.95ZM147.822 70L134.718 53.728L141.774 45.016L161.43 70H147.822Z" fill="white"/>
<path d="M36.936 32.56L36.4746 33.4472L36.4852 33.4527L36.4958 33.4579L36.936 32.56ZM42.696 38.176L41.8187 38.656L41.8226 38.6631L42.696 38.176ZM44.784 70V71H45.784V70H44.784ZM33.552 70H32.552V71H33.552V70ZM31.464 42.64L30.7219 43.3103L30.7278 43.3168L30.7337 43.3232L31.464 42.64ZM20.88 41.56L21.3395 42.4483L21.3506 42.4424L20.88 41.56ZM17.568 44.944L16.6849 44.4748L16.6791 44.4857L16.6736 44.4968L17.568 44.944ZM16.416 70V71H17.416V70H16.416ZM5.184 70H4.184V71H5.184V70ZM5.184 31.264V30.264H4.184V31.264H5.184ZM15.912 31.264H16.912V30.264H15.912V31.264ZM15.912 41.992L15.0629 42.5203L16.912 45.492V41.992H15.912ZM13.896 38.752L13.015 38.2789L12.7411 38.7888L13.0469 39.2803L13.896 38.752ZM19.872 32.776L20.3451 33.657L20.3451 33.657L19.872 32.776ZM28.728 31.688C31.6614 31.688 34.2355 32.2828 36.4746 33.4472L37.3974 31.6728C34.8366 30.3412 31.9386 29.688 28.728 29.688V31.688ZM36.4958 33.4579C38.7464 34.5611 40.5191 36.2809 41.8187 38.656L43.5733 37.696C42.0889 34.9831 40.0216 32.9589 37.3762 31.6621L36.4958 33.4579ZM41.8226 38.6631C43.1061 40.9645 43.784 43.9972 43.784 47.824H45.784C45.784 43.7788 45.0699 40.3795 43.5694 37.6889L41.8226 38.6631ZM43.784 47.824V70H45.784V47.824H43.784ZM44.784 69H33.552V71H44.784V69ZM34.552 70V49.552H32.552V70H34.552ZM34.552 49.552C34.552 46.3091 33.832 43.7075 32.1943 41.9568L30.7337 43.3232C31.88 44.5485 32.552 46.5549 32.552 49.552H34.552ZM32.2061 41.9697C30.6278 40.2223 28.4084 39.408 25.704 39.408V41.408C27.9916 41.408 29.6123 42.0817 30.7219 43.3103L32.2061 41.9697ZM25.704 39.408C23.7787 39.408 22.0068 39.8257 20.4094 40.6776L21.3506 42.4424C22.6332 41.7583 24.0773 41.408 25.704 41.408V39.408ZM20.4206 40.6718C18.8284 41.4953 17.5853 42.7799 16.6849 44.4748L18.4511 45.4132C19.1827 44.0361 20.1476 43.0647 21.3394 42.4482L20.4206 40.6718ZM16.6736 44.4968C15.8142 46.2156 15.416 48.3508 15.416 50.848H17.416C17.416 48.5452 17.7858 46.7444 18.4624 45.3912L16.6736 44.4968ZM15.416 50.848V70H17.416V50.848H15.416ZM16.416 69H5.184V71H16.416V69ZM6.184 70V31.264H4.184V70H6.184ZM5.184 32.264H15.912V30.264H5.184V32.264ZM14.912 31.264V41.992H16.912V31.264H14.912ZM16.7611 41.4637L14.7451 38.2237L13.0469 39.2803L15.0629 42.5203L16.7611 41.4637ZM14.777 39.2251C16.0761 36.8062 17.9262 34.956 20.3451 33.657L19.3989 31.895C16.6338 33.3799 14.4999 35.5138 13.015 38.2789L14.777 39.2251ZM20.3451 33.657C22.7742 32.3525 25.5601 31.688 28.728 31.688V29.688C25.2719 29.688 22.1538 30.4155 19.3989 31.895L20.3451 33.657ZM54.9653 70H53.9653V71H54.9653V70ZM54.9653 31.264V30.264H53.9653V31.264H54.9653ZM66.1973 31.264H67.1973V30.264H66.1973V31.264ZM66.1973 70V71H67.1973V70H66.1973ZM55.5413 24.064L54.8618 24.7978L54.8618 24.7978L55.5413 24.064ZM55.5413 15.136L56.2207 15.8698L56.2207 15.8698L55.5413 15.136ZM65.6213 15.064L64.9569 15.8114L64.9648 15.8184L64.9728 15.8252L65.6213 15.064ZM65.6213 24.064L66.3144 24.7848L66.3149 24.7843L65.6213 24.064ZM55.9653 70V31.264H53.9653V70H55.9653ZM54.9653 32.264H66.1973V30.264H54.9653V32.264ZM65.1973 31.264V70H67.1973V31.264H65.1973ZM66.1973 69H54.9653V71H66.1973V69ZM60.5813 24.864C58.7239 24.864 57.3011 24.3306 56.2207 23.3302L54.8618 24.7978C56.3734 26.1974 58.3106 26.864 60.5813 26.864V24.864ZM56.2207 23.3302C55.1303 22.3207 54.5973 21.0992 54.5973 19.6H52.5973C52.5973 21.6528 53.3602 23.4073 54.8618 24.7978L56.2207 23.3302ZM54.5973 19.6C54.5973 18.1008 55.1303 16.8793 56.2207 15.8698L54.8618 14.4022C53.3602 15.7927 52.5973 17.5472 52.5973 19.6H54.5973ZM56.2207 15.8698C57.3011 14.8694 58.7239 14.336 60.5813 14.336V12.336C58.3106 12.336 56.3734 13.0026 54.8618 14.4022L56.2207 15.8698ZM60.5813 14.336C62.4495 14.336 63.8776 14.852 64.9569 15.8114L66.2856 14.3166C64.7729 12.9719 62.841 12.336 60.5813 12.336V14.336ZM64.9728 15.8252C66.0349 16.73 66.5653 17.8865 66.5653 19.384H68.5653C68.5653 17.3295 67.7996 15.6059 66.2697 14.3028L64.9728 15.8252ZM66.5653 19.384C66.5653 20.9966 66.0191 22.2926 64.9276 23.3437L66.3149 24.7843C67.8154 23.3394 68.5653 21.5154 68.5653 19.384H66.5653ZM64.9281 23.3432C63.9057 24.3263 62.495 24.864 60.5813 24.864V26.864C62.8915 26.864 64.8408 26.2017 66.3144 24.7848L64.9281 23.3432ZM84.1815 68.056L83.7136 68.9398L83.7239 68.9451L84.1815 68.056ZM76.4775 60.928L75.6212 61.4445L75.6272 61.4544L76.4775 60.928ZM76.4775 40.336L75.6272 39.8096L75.6249 39.8134L76.4775 40.336ZM84.1815 33.28L84.6392 34.1692L84.6494 34.1638L84.1815 33.28ZM105.998 33.28L105.501 34.1483L105.512 34.1542L105.998 33.28ZM112.694 40.552L113.167 41.4329L113.991 40.9901L113.604 40.1382L112.694 40.552ZM103.982 45.232L103.106 45.7157L103.584 46.5806L104.455 46.1129L103.982 45.232ZM100.166 41.2L99.6633 42.0649L99.6752 42.0716L100.166 41.2ZM90.0855 41.2L90.5758 42.0716L90.5758 42.0716L90.0855 41.2ZM86.4135 44.872L85.5469 44.373L85.5411 44.383L85.5356 44.3931L86.4135 44.872ZM86.4135 56.392L85.5356 56.8709L85.5411 56.881L85.5469 56.891L86.4135 56.392ZM90.0855 60.064L90.5758 59.1924L90.5758 59.1924L90.0855 60.064ZM100.166 60.136L100.646 61.0129L100.656 61.0076L100.166 60.136ZM103.982 56.032L104.46 55.1541L103.578 54.6727L103.101 55.5579L103.982 56.032ZM112.694 60.784L113.601 61.2031L113.993 60.3539L113.172 59.9061L112.694 60.784ZM105.998 68.056L106.483 68.9302L106.494 68.9242L105.998 68.056ZM95.3415 69.576C91.3026 69.576 87.7432 68.7645 84.6391 67.1669L83.7239 68.9451C87.1478 70.7075 91.0284 71.576 95.3415 71.576V69.576ZM84.6494 67.1722C81.536 65.524 79.1026 63.2687 77.3278 60.4016L75.6272 61.4544C77.5964 64.6353 80.299 67.132 83.7136 68.9398L84.6494 67.1722ZM77.3338 60.4115C75.612 57.5569 74.7415 54.3064 74.7415 50.632H72.7415C72.7415 54.6376 73.695 58.2511 75.6212 61.4445L77.3338 60.4115ZM74.7415 50.632C74.7415 46.9068 75.6132 43.6598 77.3301 40.8586L75.6249 39.8134C73.6938 42.9642 72.7415 46.5812 72.7415 50.632H74.7415ZM77.3278 40.8624C79.1011 37.9978 81.5311 35.7689 84.6391 34.1691L83.7239 32.3909C80.3039 34.1511 77.5979 36.6262 75.6272 39.8096L77.3278 40.8624ZM84.6494 34.1638C87.7513 32.5216 91.307 31.688 95.3415 31.688V29.688C91.024 29.688 87.1397 30.5824 83.7136 32.3962L84.6494 34.1638ZM95.3415 31.688C99.2775 31.688 102.653 32.5204 105.501 34.1482L106.494 32.4118C103.294 30.5836 99.5655 29.688 95.3415 29.688V31.688ZM105.512 34.1542C108.347 35.7295 110.431 37.9915 111.783 40.9658L113.604 40.1382C112.076 36.7765 109.696 34.1905 106.483 32.4058L105.512 34.1542ZM112.22 39.6711L103.508 44.3511L104.455 46.1129L113.167 41.4329L112.22 39.6711ZM104.857 44.7483C103.776 42.7918 102.381 41.2989 100.656 40.3284L99.6752 42.0716C101.022 42.8291 102.171 44.0242 103.106 45.7157L104.857 44.7483ZM100.668 40.3352C99.0221 39.3797 97.2159 38.904 95.2695 38.904V40.904C96.8751 40.904 98.3329 41.2923 99.6634 42.0648L100.668 40.3352ZM95.2695 38.904C93.1936 38.904 91.2941 39.3728 89.5952 40.3284L90.5758 42.0716C91.9489 41.2992 93.5054 40.904 95.2695 40.904V38.904ZM89.5952 40.3284C87.8966 41.2839 86.5451 42.6393 85.5469 44.373L87.2801 45.371C88.1059 43.9367 89.2024 42.8441 90.5758 42.0716L89.5952 40.3284ZM85.5356 44.3931C84.5738 46.1564 84.1175 48.2499 84.1175 50.632H86.1175C86.1175 48.5021 86.5252 46.7556 87.2914 45.3509L85.5356 44.3931ZM84.1175 50.632C84.1175 53.0141 84.5738 55.1076 85.5356 56.8709L87.2914 55.9131C86.5252 54.5084 86.1175 52.7619 86.1175 50.632H84.1175ZM85.5469 56.891C86.5451 58.6247 87.8966 59.9801 89.5952 60.9356L90.5758 59.1924C89.2024 58.4199 88.1059 57.3273 87.2801 55.893L85.5469 56.891ZM89.5952 60.9356C91.2941 61.8912 93.1936 62.36 95.2695 62.36V60.36C93.5054 60.36 91.9489 59.9648 90.5758 59.1924L89.5952 60.9356ZM95.2695 62.36C97.2055 62.36 99.004 61.9134 100.646 61.0128L99.6847 59.2592C98.351 59.9906 96.8855 60.36 95.2695 60.36V62.36ZM100.656 61.0076C102.388 60.0331 103.783 58.5102 104.862 56.5061L103.101 55.5579C102.164 57.2978 101.015 58.5109 99.6752 59.2644L100.656 61.0076ZM103.503 56.9099L112.215 61.6619L113.172 59.9061L104.46 55.1541L103.503 56.9099ZM111.786 60.3649C110.434 63.2933 108.347 65.5615 105.501 67.1878L106.494 68.9242C109.696 67.0945 112.073 64.5147 113.601 61.2031L111.786 60.3649ZM105.512 67.1818C102.661 68.7656 99.2821 69.576 95.3415 69.576V71.576C99.5609 71.576 103.286 70.7064 106.483 68.9302L105.512 67.1818ZM128.238 62.08L127.238 62.059L127.186 64.5162L128.939 62.7931L128.238 62.08ZM128.526 48.4L127.838 47.6744L127.535 47.9616L127.526 48.379L128.526 48.4ZM146.598 31.264V30.264H146.199L145.91 30.5383L146.598 31.264ZM159.99 31.264L160.703 31.9653L162.376 30.264H159.99V31.264ZM142.638 48.904L143.269 49.6792L143.312 49.6445L143.351 49.6053L142.638 48.904ZM136.806 53.656L136.174 52.8808L136.138 52.9102L136.105 52.9429L136.806 53.656ZM118.95 70H117.95V71H118.95V70ZM118.95 16.576V15.576H117.95V16.576H118.95ZM130.182 16.576H131.182V15.576H130.182V16.576ZM130.182 70V71H131.182V70H130.182ZM147.822 70L147.043 70.6272L147.343 71H147.822V70ZM134.718 53.728L133.941 53.0986L133.432 53.7262L133.939 54.3552L134.718 53.728ZM141.774 45.016L142.56 44.3977L141.785 43.4131L140.997 44.3866L141.774 45.016ZM161.43 70V71H163.489L162.216 69.3817L161.43 70ZM129.237 62.101L129.525 48.421L127.526 48.379L127.238 62.059L129.237 62.101ZM129.214 49.1256L147.286 31.9896L145.91 30.5383L127.838 47.6744L129.214 49.1256ZM146.598 32.264H159.99V30.264H146.598V32.264ZM159.277 30.5627L141.925 48.2027L143.351 49.6053L160.703 31.9653L159.277 30.5627ZM142.006 48.1288L136.174 52.8808L137.437 54.4312L143.269 49.6792L142.006 48.1288ZM136.105 52.9429L127.537 61.3669L128.939 62.7931L137.507 54.3691L136.105 52.9429ZM119.95 70V16.576H117.95V70H119.95ZM118.95 17.576H130.182V15.576H118.95V17.576ZM129.182 16.576V70H131.182V16.576H129.182ZM130.182 69H118.95V71H130.182V69ZM148.6 69.3728L135.496 53.1008L133.939 54.3552L147.043 70.6272L148.6 69.3728ZM135.495 54.3574L142.551 45.6454L140.997 44.3866L133.941 53.0986L135.495 54.3574ZM140.988 45.6343L160.644 70.6183L162.216 69.3817L142.56 44.3977L140.988 45.6343ZM161.43 69H147.822V71H161.43V69Z" fill="white" mask="url(#path-1-outside-1_695_15)"/>
<mask id="path-3-outside-2_695_15" maskUnits="userSpaceOnUse" x="165" y="14" width="48" height="59" fill="black">
<rect fill="white" x="165" y="14" width="48" height="59"/>
<path d="M173.552 70V30.4C173.552 26.032 174.848 22.552 177.44 19.96C180.032 17.32 183.728 16 188.528 16C190.16 16 191.72 16.168 193.208 16.504C194.744 16.84 196.04 17.368 197.096 18.088L194.144 26.224C193.52 25.792 192.824 25.456 192.056 25.216C191.288 24.976 190.472 24.856 189.608 24.856C187.976 24.856 186.704 25.336 185.792 26.296C184.928 27.208 184.496 28.6 184.496 30.472V34.072L184.784 38.896V70H173.552ZM167.576 40.768V32.128H194.432V40.768H167.576ZM203.573 70.576C201.653 70.576 199.997 69.928 198.605 68.632C197.261 67.288 196.589 65.584 196.589 63.52C196.589 61.456 197.261 59.8 198.605 58.552C199.997 57.256 201.653 56.608 203.573 56.608C205.541 56.608 207.197 57.256 208.541 58.552C209.885 59.8 210.557 61.456 210.557 63.52C210.557 65.584 209.885 67.288 208.541 68.632C207.197 69.928 205.541 70.576 203.573 70.576Z"/>
</mask>
<path d="M173.552 70H171.552V72H173.552V70ZM177.44 19.96L178.854 21.3742L178.861 21.3677L178.867 21.3612L177.44 19.96ZM193.208 16.504L192.767 18.4549L192.781 18.4578L193.208 16.504ZM197.096 18.088L198.976 18.7701L199.506 17.3104L198.223 16.4355L197.096 18.088ZM194.144 26.224L193.006 27.8684L195.139 29.3454L196.024 26.9061L194.144 26.224ZM185.792 26.296L184.342 24.9185L184.34 24.9205L185.792 26.296ZM184.496 34.072H182.496V34.1316L182.5 34.1912L184.496 34.072ZM184.784 38.896H186.784V38.8363L186.78 38.7768L184.784 38.896ZM184.784 70V72H186.784V70H184.784ZM167.576 40.768H165.576V42.768H167.576V40.768ZM167.576 32.128V30.128H165.576V32.128H167.576ZM194.432 32.128H196.432V30.128H194.432V32.128ZM194.432 40.768V42.768H196.432V40.768H194.432ZM175.552 70V30.4H171.552V70H175.552ZM175.552 30.4C175.552 26.4534 176.708 23.5205 178.854 21.3742L176.026 18.5458C172.988 21.5835 171.552 25.6106 171.552 30.4H175.552ZM178.867 21.3612C180.98 19.2089 184.098 18 188.528 18V14C183.358 14 179.084 15.4311 176.013 18.5588L178.867 21.3612ZM188.528 18C190.022 18 191.434 18.1537 192.767 18.4549L193.649 14.5531C192.006 14.1823 190.298 14 188.528 14V18ZM192.781 18.4578C194.122 18.7513 195.168 19.1938 195.969 19.7405L198.223 16.4355C196.912 15.5422 195.366 14.9287 193.635 14.5502L192.781 18.4578ZM195.216 17.4058L192.264 25.5418L196.024 26.9061L198.976 18.7701L195.216 17.4058ZM195.282 24.5796C194.482 24.0258 193.602 23.6037 192.653 23.307L191.459 27.125C192.046 27.3083 192.558 27.5582 193.006 27.8684L195.282 24.5796ZM192.653 23.307C191.678 23.0024 190.659 22.856 189.608 22.856V26.856C190.285 26.856 190.898 26.9496 191.459 27.125L192.653 23.307ZM189.608 22.856C187.564 22.856 185.716 23.472 184.342 24.9185L187.242 27.6735C187.692 27.2 188.388 26.856 189.608 26.856V22.856ZM184.34 24.9205C182.985 26.3509 182.496 28.3348 182.496 30.472H186.496C186.496 28.8652 186.871 28.0651 187.244 27.6715L184.34 24.9205ZM182.496 30.472V34.072H186.496V30.472H182.496ZM182.5 34.1912L182.788 39.0152L186.78 38.7768L186.492 33.9528L182.5 34.1912ZM182.784 38.896V70H186.784V38.896H182.784ZM184.784 68H173.552V72H184.784V68ZM169.576 40.768V32.128H165.576V40.768H169.576ZM167.576 34.128H194.432V30.128H167.576V34.128ZM192.432 32.128V40.768H196.432V32.128H192.432ZM194.432 38.768H167.576V42.768H194.432V38.768ZM198.605 68.632L197.19 70.0462L197.216 70.0715L197.242 70.0958L198.605 68.632ZM198.605 58.552L199.966 60.0176L199.967 60.0158L198.605 58.552ZM208.541 58.552L207.152 59.9917L207.166 60.0048L207.18 60.0176L208.541 58.552ZM208.541 68.632L209.929 70.0717L209.942 70.0591L209.955 70.0462L208.541 68.632ZM203.573 68.576C202.153 68.576 200.985 68.116 199.967 67.1682L197.242 70.0958C199.008 71.74 201.152 72.576 203.573 72.576V68.576ZM200.019 67.2178C199.084 66.283 198.589 65.1038 198.589 63.52H194.589C194.589 66.0642 195.437 68.293 197.19 70.0462L200.019 67.2178ZM198.589 63.52C198.589 61.9351 199.082 60.8378 199.966 60.0176L197.244 57.0864C195.439 58.7622 194.589 60.9769 194.589 63.52H198.589ZM199.967 60.0158C200.985 59.068 202.153 58.608 203.573 58.608V54.608C201.152 54.608 199.008 55.444 197.242 57.0882L199.967 60.0158ZM203.573 58.608C205.054 58.608 206.203 59.0761 207.152 59.9917L209.929 57.1123C208.19 55.4359 206.028 54.608 203.573 54.608V58.608ZM207.18 60.0176C208.063 60.8378 208.557 61.9351 208.557 63.52H212.557C212.557 60.9769 211.706 58.7622 209.902 57.0864L207.18 60.0176ZM208.557 63.52C208.557 65.1038 208.061 66.283 207.126 67.2178L209.955 70.0462C211.708 68.293 212.557 66.0642 212.557 63.52H208.557ZM207.152 67.1923C206.203 68.1079 205.054 68.576 203.573 68.576V72.576C206.028 72.576 208.19 71.7481 209.929 70.0717L207.152 67.1923Z" fill="white" mask="url(#path-3-outside-2_695_15)"/>
<path d="M218.184 72V33.264H229.416V72H218.184ZM223.8 27.864C221.736 27.864 220.056 27.264 218.76 26.064C217.464 24.864 216.816 23.376 216.816 21.6C216.816 19.824 217.464 18.336 218.76 17.136C220.056 15.936 221.736 15.336 223.8 15.336C225.864 15.336 227.544 15.912 228.84 17.064C230.136 18.168 230.784 19.608 230.784 21.384C230.784 23.256 230.136 24.816 228.84 26.064C227.592 27.264 225.912 27.864 223.8 27.864ZM258.272 72.576C254.144 72.576 250.472 71.712 247.256 69.984C244.088 68.256 241.568 65.904 239.696 62.928C237.872 59.904 236.96 56.472 236.96 52.632C236.96 48.744 237.872 45.312 239.696 42.336C241.568 39.312 244.088 36.96 247.256 35.28C250.472 33.552 254.144 32.688 258.272 32.688C262.352 32.688 266 33.552 269.216 35.28C272.432 36.96 274.952 39.288 276.776 42.264C278.6 45.24 279.512 48.696 279.512 52.632C279.512 56.472 278.6 59.904 276.776 62.928C274.952 65.904 272.432 68.256 269.216 69.984C266 71.712 262.352 72.576 258.272 72.576ZM258.272 63.36C260.144 63.36 261.824 62.928 263.312 62.064C264.8 61.2 265.976 59.976 266.84 58.392C267.704 56.76 268.136 54.84 268.136 52.632C268.136 50.376 267.704 48.456 266.84 46.872C265.976 45.288 264.8 44.064 263.312 43.2C261.824 42.336 260.144 41.904 258.272 41.904C256.4 41.904 254.72 42.336 253.232 43.2C251.744 44.064 250.544 45.288 249.632 46.872C248.768 48.456 248.336 50.376 248.336 52.632C248.336 54.84 248.768 56.76 249.632 58.392C250.544 59.976 251.744 61.2 253.232 62.064C254.72 62.928 256.4 63.36 258.272 63.36Z" fill="url(#paint0_linear_695_15)"/>
<defs>
<linearGradient id="paint0_linear_695_15" x1="221" y1="2" x2="295" y2="90" gradientUnits="userSpaceOnUse">
<stop stop-color="#09D89D"/>
<stop offset="1" stop-color="#03BBE6"/>
</linearGradient>
</defs>
</svg>
